<!-- Author: Tri Blankley -->
<?xml version="1.0" encoding="UTF-8"?>
<svg xmlns="http://www.w3.org/2000/svg" viewBox="0 0 1926 745.07">
    <defs>
        <style>
            .cls-1 {
                fill: #dc8a27;
            }

            .cls-1,
            .cls-2,
            .cls-3,
            .cls-4,
            .cls-5,
            .cls-6,
            .cls-7,
            .cls-8,
            .cls-9,
            .cls-10,
            .cls-11 {
                stroke-width: 0px;
            }

            .cls-2 {
                fill: #000;
            }

            .cls-3 {
                fill: #6f9f41;
            }

            .cls-4 {
                fill: #edd000;
            }

            .cls-5 {
                fill: #60560a;
            }

            .cls-6 {
                fill: #0f86a6;
            }

            .cls-12 {
                isolation: isolate;
            }

            .cls-7 {
                fill: #07542a;
            }

            .cls-8 {
                fill: #012557;
            }

            .cls-9 {
                fill: #fff;
            }

            .cls-10 {
                fill: #d17709;
            }

            .cls-11 {
                fill: #184786;
            }
        </style>
    </defs>
    <g id="Color_Blocks">
        <g id="ColorBlocks">
            <rect class="cls-11" y="143.08" width="430.7" height="430.7" />
            <rect class="cls-8" x="348.3" y="143.08" width="44.7" height="430.7" />
            <rect class="cls-6" x="392.9" y="143.08" width="348.3" height="430.7" />
            <rect class="cls-7" x="741.2" y="143.08" width="44.7" height="430.7" />
            <rect class="cls-3" x="785.9" y="143.08" width="348.3" height="430.7" />
            <rect class="cls-5" x="1134.1" y="143.08" width="44.7" height="430.7" />
            <rect class="cls-1" x="1178.8" y="143.08" width="348.3" height="430.7" />
            <rect class="cls-4" x="1571.7" y="143.08" width="348.3" height="430.7" />
            <rect class="cls-10" x="1527.1" y="143.08" width="44.7" height="430.7" />
        </g>
    </g>
    <g id="Layer_1">
        <g id="Text">
            <g class="cls-12">
                <g class="cls-12">
                    <path class="cls-2"
                        d="M228.41,69.68h-6.72V13.74h8.47l14.03,23.57,14.19,24.24c-.22-5.37-.33-13.42-.33-24.15V13.74h6.72v55.94h-8.47l-14.03-23.41c-2.82-4.7-5.42-9.09-7.8-13.16-2.38-4.07-4.07-6.99-5.06-8.76l-1.41-2.57c.28,5.75.41,13.86.41,24.32v23.57Z" />
                    <path class="cls-2"
                        d="M416.57,69.68h-31.21V13.74h30.79v5.89h-24.07v19.17h21.25v5.89h-21.25v19.09h24.49v5.89Z" />
                    <path class="cls-2"
                        d="M554.52,69.68h-8.55l-14.61-55.94h7.06l5.23,20.75,6.89,28.14c3.1-11.34,5.73-20.72,7.88-28.14l5.81-19.92h6.72l6.14,19.92,8.47,28.39c2.54-12.23,4.59-21.66,6.14-28.3l4.73-20.83h6.81l-13.11,55.94h-8.63l-5.4-17.68-8.38-27.97c-1.72,6.53-4.37,15.85-7.97,27.97l-5.23,17.68Z" />
                    <path class="cls-2"
                        d="M854.65,69.68h-6.72l4.07-55.94h8.55l7.39,20.42,8.96,26.06c3.21-9.07,6.36-17.76,9.46-26.06l7.72-20.42h8.55l4.9,55.94h-6.72l-1.91-22.08-1.99-24.82c-2.93,8.19-5.95,16.46-9.05,24.82l-7.8,20.83h-6.39l-7.39-20.83-8.47-24.32c0,2.16-.53,10.27-1.58,24.32l-1.58,22.08Z" />
                    <path class="cls-2"
                        d="M1058.66,69.68h-31.21V13.74h30.79v5.89h-24.07v19.17h21.25v5.89h-21.25v19.09h24.49v5.89Z" />
                    <path class="cls-2"
                        d="M1181.66,69.68h-7.97l18.01-28.22-17.01-27.72h7.88l12.87,21.66,12.86-21.66h7.97l-16.93,27.72,18.76,28.22h-7.88l-14.61-22.49-13.94,22.49Z" />
                    <path class="cls-2" d="M1342.77,69.68h-6.72V13.74h6.72v55.94Z" />
                    <path class="cls-2"
                        d="M1503.95,66.86c-3.43,2.32-8.13,3.49-14.11,3.49-8.41,0-15.25-2.59-20.5-7.76-5.26-5.17-7.88-12.21-7.88-21.12,0-8.41,2.67-15.26,8.01-20.54,5.34-5.28,12.05-7.93,20.13-7.93,5.81,0,10.54,1,14.19,2.99v6.89c-2.44-1.27-4.62-2.19-6.56-2.74-1.94-.55-4.48-.83-7.64-.83-6.03,0-11.05,2.05-15.06,6.14-4.01,4.1-6.02,9.43-6.02,16.02s1.99,12.34,5.98,16.43c3.98,4.1,9.27,6.14,15.85,6.14,5.31,0,9.85-1.41,13.61-4.23v7.05Z" />
                    <path class="cls-2"
                        d="M1669.45,41.46c0,8.8-2.26,15.81-6.76,21.04-4.51,5.23-10.61,7.84-18.3,7.84s-13.67-2.63-18.26-7.88c-4.59-5.26-6.89-12.26-6.89-21s2.25-15.8,6.76-21,10.61-7.8,18.3-7.8,14.01,2.59,18.47,7.76c4.45,5.17,6.68,12.19,6.68,21.04ZM1626.29,41.46c0,6.92,1.65,12.4,4.94,16.43,3.29,4.04,7.68,6.06,13.16,6.06s10.11-1.99,13.24-5.98c3.13-3.98,4.69-9.49,4.69-16.52s-1.58-12.53-4.73-16.52c-3.15-3.98-7.58-5.98-13.28-5.98s-10.06,2.01-13.24,6.02c-3.18,4.01-4.77,9.5-4.77,16.48Z" />
                </g>
            </g>
            <g class="cls-12">
                <g class="cls-12">
                    <path class="cls-2"
                        d="M73.5,714.28h-31.21v-55.94h30.79v5.89h-24.07v19.17h21.25v5.89h-21.25v19.09h24.49v5.89Z" />
                    <path class="cls-2"
                        d="M116.74,714.28h-6.56v-27.22c0-3.1-.79-5.46-2.37-7.1-1.58-1.63-3.64-2.45-6.18-2.45-3.15,0-5.88,1.22-8.18,3.65-2.3,2.44-3.44,5.81-3.44,10.13v22.99h-6.47v-42.08h6.47v7.3c2.49-5.26,6.92-7.88,13.28-7.88,4.09,0,7.36,1.25,9.79,3.74,2.43,2.49,3.65,5.81,3.65,9.96v28.97Z" />
                    <path class="cls-2"
                        d="M159.07,712.12c-3.27,1.72-7.25,2.57-11.95,2.57-6.36,0-11.5-1.95-15.4-5.85s-5.85-9.06-5.85-15.48,1.74-11.98,5.23-15.85c3.49-3.87,7.97-5.81,13.45-5.81s9.43,1.69,12.53,5.06c3.1,3.38,4.65,8.16,4.65,14.36,0,1.77-.14,3.4-.42,4.9h-28.72c.5,4.15,2.08,7.33,4.73,9.54,2.66,2.21,6.14,3.32,10.46,3.32,4.7,0,8.47-.97,11.29-2.91v6.14ZM144.55,677.43c-3.15,0-5.84,1.13-8.05,3.4-2.21,2.27-3.51,5.51-3.9,9.71h22.58v-1.66c0-3.49-.94-6.27-2.82-8.34-1.88-2.08-4.48-3.11-7.8-3.11Z" />
                    <path class="cls-2"
                        d="M178.16,714.28h-6.56l.08-42.08h6.47v7.39c2.21-5.2,6.03-7.8,11.45-7.8,1,0,1.77.06,2.32.17v6.47c-1.16-.39-2.35-.58-3.57-.58-2.93,0-5.37,1.36-7.3,4.07-1.94,2.71-2.9,5.84-2.9,9.38v22.99Z" />
                    <path class="cls-2"
                        d="M232.69,710.88c0,6.42-1.77,11.25-5.31,14.48-3.54,3.24-8.11,4.86-13.69,4.86-5.09,0-9.43-.86-13.03-2.57v-6.56c3.54,2.05,7.69,3.07,12.45,3.07,4.04,0,7.22-1.08,9.54-3.24,2.32-2.16,3.49-5.53,3.49-10.13v-4.73c-2.77,4.76-6.89,7.14-12.37,7.14-4.81,0-8.92-1.77-12.33-5.31-3.4-3.54-5.1-8.47-5.1-14.77s1.58-11.4,4.73-15.44c3.15-4.04,7.28-6.06,12.37-6.06,5.75,0,9.99,2.52,12.7,7.55v-6.97h6.56v38.68ZM203.14,692.95c0,4.7,1.16,8.29,3.49,10.75,2.32,2.46,4.95,3.69,7.89,3.69s5.74-1.18,8.09-3.53c2.35-2.35,3.53-5.85,3.53-10.5,0-5.37-1.13-9.35-3.4-11.95-2.27-2.6-4.9-3.9-7.88-3.9-3.6,0-6.45,1.42-8.55,4.27-2.1,2.85-3.15,6.57-3.15,11.16Z" />
                    <path class="cls-2"
                        d="M262.57,713.2c-2.16,5.7-4.72,9.71-7.68,12.04-2.96,2.32-6.35,3.49-10.17,3.49-1.44,0-2.6-.14-3.49-.42v-5.89c.83.22,1.77.33,2.82.33,5.59,0,9.54-3.18,11.87-9.54l-17.02-41h7.39l5.48,13.86,7.39,19.09c.44-1.44,2.66-7.8,6.64-19.09l4.9-13.86h7.05l-15.19,41Z" />
                    <path class="cls-2" d="M284.23,724.49h-5.73l7.72-18.59h8.71l-10.71,18.59Z" />
                    <path class="cls-2"
                        d="M330.63,714.28h-6.72l4.07-55.94h8.55l7.39,20.42,8.96,26.06c3.21-9.07,6.36-17.76,9.46-26.06l7.72-20.42h8.55l4.9,55.94h-6.72l-1.91-22.08-1.99-24.82c-2.93,8.19-5.95,16.46-9.05,24.82l-7.8,20.83h-6.39l-7.39-20.83-8.47-24.32c0,2.16-.53,10.27-1.58,24.32l-1.58,22.08Z" />
                    <path class="cls-2"
                        d="M401.92,655.93c.83.83,1.24,1.85,1.24,3.07s-.42,2.23-1.24,3.03c-.83.8-1.85,1.2-3.07,1.2s-2.23-.4-3.03-1.2c-.8-.8-1.2-1.81-1.2-3.03s.4-2.24,1.2-3.07c.8-.83,1.81-1.25,3.03-1.25s2.24.42,3.07,1.25ZM402.17,714.28h-6.56v-42.08h6.56v42.08Z" />
                    <path class="cls-2"
                        d="M447.82,714.28h-6.56v-27.22c0-3.1-.79-5.46-2.37-7.1-1.58-1.63-3.64-2.45-6.18-2.45-3.15,0-5.88,1.22-8.18,3.65-2.3,2.44-3.44,5.81-3.44,10.13v22.99h-6.47v-42.08h6.47v7.3c2.49-5.26,6.92-7.88,13.28-7.88,4.09,0,7.36,1.25,9.79,3.74,2.43,2.49,3.65,5.81,3.65,9.96v28.97Z" />
                    <path class="cls-2"
                        d="M490.15,712.12c-3.27,1.72-7.25,2.57-11.95,2.57-6.36,0-11.5-1.95-15.4-5.85s-5.85-9.06-5.85-15.48,1.74-11.98,5.23-15.85c3.49-3.87,7.97-5.81,13.45-5.81s9.43,1.69,12.53,5.06c3.1,3.38,4.65,8.16,4.65,14.36,0,1.77-.14,3.4-.42,4.9h-28.72c.5,4.15,2.08,7.33,4.73,9.54,2.66,2.21,6.14,3.32,10.46,3.32,4.7,0,8.47-.97,11.29-2.91v6.14ZM475.63,677.43c-3.15,0-5.84,1.13-8.05,3.4-2.21,2.27-3.51,5.51-3.9,9.71h22.58v-1.66c0-3.49-.94-6.27-2.82-8.34-1.88-2.08-4.48-3.11-7.8-3.11Z" />
                    <path class="cls-2"
                        d="M509.24,714.28h-6.56l.08-42.08h6.47v7.39c2.21-5.2,6.03-7.8,11.45-7.8,1,0,1.77.06,2.32.17v6.47c-1.16-.39-2.35-.58-3.57-.58-2.93,0-5.37,1.36-7.3,4.07-1.94,2.71-2.9,5.84-2.9,9.38v22.99Z" />
                    <path class="cls-2"
                        d="M552.56,709.3c-2.16,3.6-6.09,5.4-11.79,5.4-3.93,0-7.1-1.16-9.5-3.49-2.41-2.32-3.61-5.26-3.61-8.8,0-4.04,1.54-7.18,4.61-9.42,3.07-2.24,7.26-3.36,12.57-3.36h7.64v-2.16c0-3.32-.75-5.82-2.24-7.51-1.49-1.69-4.01-2.53-7.55-2.53-4.48,0-8.47,1.19-11.95,3.57v-6.56c3.15-1.94,7.3-2.91,12.45-2.91,10.57,0,15.85,5.37,15.85,16.1v26.64h-6.47v-4.98ZM542.69,709.21c2.99,0,5.37-.84,7.14-2.53,1.77-1.69,2.66-3.83,2.66-6.43v-5.39h-7.3c-3.54,0-6.2.69-7.97,2.08-1.77,1.38-2.66,3.13-2.66,5.23s.69,3.81,2.08,5.1c1.38,1.3,3.4,1.95,6.06,1.95Z" />
                    <path class="cls-2" d="M577.55,714.28h-6.56v-58.68h6.56v58.68Z" />
                    <path class="cls-2"
                        d="M615.31,703.07c0,3.6-1.26,6.45-3.78,8.55-2.52,2.1-5.96,3.15-10.33,3.15-5.09,0-9.21-.86-12.37-2.57v-6.39c3.71,2.21,7.69,3.32,11.95,3.32,2.54,0,4.48-.5,5.81-1.49,1.33-1,1.99-2.35,1.99-4.07,0-1.99-.73-3.54-2.2-4.65-1.47-1.11-3.92-2.35-7.35-3.73-3.15-1.22-5.69-2.74-7.59-4.57-1.91-1.83-2.86-4.29-2.86-7.39,0-3.49,1.31-6.27,3.94-8.34,2.63-2.08,5.91-3.11,9.84-3.11,4.37,0,7.89.61,10.54,1.83v6.22c-2.55-1.55-6.03-2.32-10.46-2.32-2.21,0-3.97.51-5.27,1.54-1.3,1.02-1.95,2.34-1.95,3.94,0,1,.19,1.87.58,2.61.39.75,1.15,1.48,2.28,2.2,1.13.72,1.96,1.2,2.49,1.45.52.25,1.67.76,3.44,1.54,3.54,1.44,6.31,3.07,8.3,4.9,1.99,1.83,2.99,4.29,2.99,7.39Z" />
                    <path class="cls-2" d="M623.2,724.49h-5.73l7.72-18.59h8.71l-10.71,18.59Z" />
                    <path class="cls-2"
                        d="M685.86,709.3c-2.16,3.6-6.09,5.4-11.79,5.4-3.93,0-7.1-1.16-9.5-3.49-2.41-2.32-3.61-5.26-3.61-8.8,0-4.04,1.54-7.18,4.61-9.42,3.07-2.24,7.26-3.36,12.57-3.36h7.64v-2.16c0-3.32-.75-5.82-2.24-7.51-1.49-1.69-4.01-2.53-7.55-2.53-4.48,0-8.47,1.19-11.95,3.57v-6.56c3.15-1.94,7.3-2.91,12.45-2.91,10.57,0,15.85,5.37,15.85,16.1v26.64h-6.47v-4.98ZM675.98,709.21c2.99,0,5.37-.84,7.14-2.53,1.77-1.69,2.66-3.83,2.66-6.43v-5.39h-7.3c-3.54,0-6.2.69-7.97,2.08-1.77,1.38-2.66,3.13-2.66,5.23s.69,3.81,2.08,5.1c1.38,1.3,3.4,1.95,6.06,1.95Z" />
                    <path class="cls-2"
                        d="M737.15,714.28h-6.56v-27.22c0-3.1-.79-5.46-2.37-7.1-1.58-1.63-3.64-2.45-6.18-2.45-3.15,0-5.88,1.22-8.18,3.65-2.3,2.44-3.44,5.81-3.44,10.13v22.99h-6.47v-42.08h6.47v7.3c2.49-5.26,6.92-7.88,13.28-7.88,4.09,0,7.36,1.25,9.79,3.74,2.43,2.49,3.65,5.81,3.65,9.96v28.97Z" />
                    <path class="cls-2"
                        d="M783.71,714.28h-6.56v-6.22c-2.99,4.59-7.3,6.89-12.95,6.89s-9.97-2.08-13.16-6.22c-3.18-4.15-4.77-9.18-4.77-15.11,0-6.58,1.69-11.91,5.06-15.98,3.37-4.07,7.72-6.1,13.03-6.1s9.74,2.35,12.78,7.05v-22.99h6.56v58.68ZM753.09,693.69c0,4.54,1.11,8.22,3.32,11.04,2.21,2.82,5.01,4.23,8.38,4.23s6.35-1.27,8.76-3.82c2.41-2.54,3.61-6.61,3.61-12.2s-1.24-9.21-3.73-11.7c-2.49-2.49-5.23-3.73-8.22-3.73-3.49,0-6.38,1.4-8.67,4.19-2.3,2.79-3.44,6.79-3.44,11.99Z" />
                    <path class="cls-2"
                        d="M823.14,714.28h-6.72v-55.94h8.47l14.03,23.57,14.19,24.24c-.22-5.37-.33-13.42-.33-24.15v-23.66h6.72v55.94h-8.47l-14.03-23.41c-2.82-4.7-5.42-9.09-7.8-13.16-2.38-4.07-4.07-6.99-5.06-8.76l-1.41-2.57c.28,5.75.41,13.86.41,24.32v23.57Z" />
                    <path class="cls-2"
                        d="M894.68,709.3c-2.16,3.6-6.09,5.4-11.79,5.4-3.93,0-7.1-1.16-9.5-3.49-2.41-2.32-3.61-5.26-3.61-8.8,0-4.04,1.54-7.18,4.61-9.42,3.07-2.24,7.26-3.36,12.57-3.36h7.64v-2.16c0-3.32-.75-5.82-2.24-7.51-1.49-1.69-4.01-2.53-7.55-2.53-4.48,0-8.47,1.19-11.95,3.57v-6.56c3.15-1.94,7.3-2.91,12.45-2.91,10.57,0,15.85,5.37,15.85,16.1v26.64h-6.47v-4.98ZM884.8,709.21c2.99,0,5.37-.84,7.14-2.53,1.77-1.69,2.66-3.83,2.66-6.43v-5.39h-7.3c-3.54,0-6.2.69-7.97,2.08-1.77,1.38-2.66,3.13-2.66,5.23s.69,3.81,2.08,5.1c1.38,1.3,3.4,1.95,6.06,1.95Z" />
                    <path class="cls-2"
                        d="M933.86,713.2c-1.83,1-3.87,1.49-6.14,1.49-8.3,0-12.45-4.23-12.45-12.7v-24.48h-6.72v-5.31h6.72v-10.46h6.56v10.46h11.62v5.31h-11.62v24.65c0,4.48,2.1,6.72,6.31,6.72,2.16,0,4.07-.64,5.73-1.91v6.22Z" />
                    <path class="cls-2"
                        d="M976.1,714.28h-6.56v-7.3c-2.21,5.2-6.61,7.8-13.2,7.8-4.15,0-7.43-1.23-9.84-3.69-2.41-2.46-3.61-5.77-3.61-9.92v-28.97h6.56v27.31c0,3.04.77,5.37,2.32,6.97,1.55,1.61,3.65,2.41,6.31,2.41,3.49,0,6.27-1.22,8.34-3.65,2.08-2.43,3.11-5.73,3.11-9.88v-23.16h6.56v42.08Z" />
                    <path class="cls-2"
                        d="M994.7,714.28h-6.56l.08-42.08h6.47v7.39c2.21-5.2,6.03-7.8,11.45-7.8,1,0,1.77.06,2.32.17v6.47c-1.16-.39-2.35-.58-3.57-.58-2.93,0-5.37,1.36-7.3,4.07-1.94,2.71-2.91,5.84-2.91,9.38v22.99Z" />
                    <path class="cls-2"
                        d="M1038.02,709.3c-2.16,3.6-6.09,5.4-11.79,5.4-3.93,0-7.1-1.16-9.5-3.49-2.41-2.32-3.61-5.26-3.61-8.8,0-4.04,1.54-7.18,4.61-9.42,3.07-2.24,7.26-3.36,12.57-3.36h7.64v-2.16c0-3.32-.75-5.82-2.24-7.51-1.49-1.69-4.01-2.53-7.55-2.53-4.48,0-8.47,1.19-11.95,3.57v-6.56c3.15-1.94,7.3-2.91,12.45-2.91,10.57,0,15.85,5.37,15.85,16.1v26.64h-6.47v-4.98ZM1028.14,709.21c2.99,0,5.37-.84,7.14-2.53,1.77-1.69,2.66-3.83,2.66-6.43v-5.39h-7.3c-3.54,0-6.2.69-7.97,2.08-1.77,1.38-2.66,3.13-2.66,5.23s.69,3.81,2.08,5.1c1.38,1.3,3.4,1.95,6.06,1.95Z" />
                    <path class="cls-2" d="M1063,714.28h-6.56v-58.68h6.56v58.68Z" />
                    <path class="cls-2"
                        d="M1110.81,692.2h-8.05v22.08h-6.72v-55.94h14.03c6.47,0,11.38,1.52,14.73,4.57,3.35,3.04,5.02,7.25,5.02,12.62-.11,3.87-1.13,7.17-3.07,9.88-1.94,2.71-4.68,4.62-8.22,5.73l14.69,23.16h-8.05l-13.7-22.08h-.66ZM1110.48,664.15h-7.72v22.33h8.47c3.82,0,6.74-1.04,8.76-3.11,2.02-2.07,3.03-4.74,3.03-8.01,0-7.47-4.18-11.21-12.53-11.21Z" />
                    <path class="cls-2"
                        d="M1171.89,712.12c-3.26,1.72-7.25,2.57-11.95,2.57-6.36,0-11.5-1.95-15.4-5.85-3.9-3.9-5.85-9.06-5.85-15.48s1.74-11.98,5.23-15.85,7.97-5.81,13.45-5.81,9.43,1.69,12.53,5.06c3.1,3.38,4.65,8.16,4.65,14.36,0,1.77-.14,3.4-.42,4.9h-28.72c.5,4.15,2.08,7.33,4.73,9.54,2.66,2.21,6.14,3.32,10.46,3.32,4.7,0,8.47-.97,11.29-2.91v6.14ZM1157.37,677.43c-3.15,0-5.84,1.13-8.05,3.4-2.21,2.27-3.51,5.51-3.9,9.71h22.58v-1.66c0-3.49-.94-6.27-2.82-8.34-1.88-2.08-4.48-3.11-7.8-3.11Z" />
                    <path class="cls-2"
                        d="M1209.83,703.07c0,3.6-1.26,6.45-3.78,8.55-2.52,2.1-5.96,3.15-10.33,3.15-5.09,0-9.21-.86-12.37-2.57v-6.39c3.71,2.21,7.69,3.32,11.95,3.32,2.54,0,4.48-.5,5.81-1.49s1.99-2.35,1.99-4.07c0-1.99-.73-3.54-2.2-4.65-1.47-1.11-3.92-2.35-7.34-3.73-3.15-1.22-5.69-2.74-7.59-4.57s-2.86-4.29-2.86-7.39c0-3.49,1.31-6.27,3.94-8.34,2.63-2.08,5.91-3.11,9.83-3.11,4.37,0,7.88.61,10.54,1.83v6.22c-2.55-1.55-6.03-2.32-10.46-2.32-2.21,0-3.97.51-5.27,1.54-1.3,1.02-1.95,2.34-1.95,3.94,0,1,.19,1.87.58,2.61.39.75,1.15,1.48,2.28,2.2,1.13.72,1.96,1.2,2.49,1.45.53.25,1.67.76,3.44,1.54,3.54,1.44,6.31,3.07,8.3,4.9s2.99,4.29,2.99,7.39Z" />
                    <path class="cls-2"
                        d="M1255.72,693.36c0,6.25-1.77,11.43-5.31,15.52s-8.41,6.14-14.61,6.14-10.8-2.03-14.32-6.1c-3.51-4.07-5.27-9.2-5.27-15.4s1.81-11.47,5.44-15.65c3.62-4.18,8.34-6.27,14.15-6.27,6.36,0,11.27,2.05,14.73,6.14,3.46,4.09,5.19,9.3,5.19,15.6ZM1223.02,693.45c0,4.37,1.16,8.09,3.49,11.16,2.32,3.07,5.42,4.61,9.3,4.61,4.2,0,7.44-1.51,9.71-4.52,2.27-3.01,3.4-6.76,3.4-11.25s-1.08-8.48-3.24-11.5c-2.16-3.02-5.45-4.52-9.88-4.52-3.98,0-7.11,1.55-9.38,4.65-2.27,3.1-3.4,6.89-3.4,11.37Z" />
                    <path class="cls-2"
                        d="M1298.05,714.28h-6.56v-7.3c-2.21,5.2-6.61,7.8-13.2,7.8-4.15,0-7.43-1.23-9.83-3.69-2.41-2.46-3.61-5.77-3.61-9.92v-28.97h6.56v27.31c0,3.04.77,5.37,2.32,6.97,1.55,1.61,3.65,2.41,6.31,2.41,3.49,0,6.27-1.22,8.34-3.65,2.07-2.43,3.11-5.73,3.11-9.88v-23.16h6.56v42.08Z" />
                    <path class="cls-2"
                        d="M1316.64,714.28h-6.56l.08-42.08h6.47v7.39c2.21-5.2,6.03-7.8,11.45-7.8,1,0,1.77.06,2.32.17v6.47c-1.16-.39-2.35-.58-3.57-.58-2.93,0-5.37,1.36-7.3,4.07-1.94,2.71-2.91,5.84-2.91,9.38v22.99Z" />
                    <path class="cls-2"
                        d="M1366.19,712.78c-2.66,1.6-5.92,2.41-9.79,2.41-6.64,0-11.91-2.12-15.81-6.35-3.9-4.23-5.85-9.39-5.85-15.48s1.95-11.12,5.85-15.44c3.9-4.32,9.23-6.47,15.98-6.47,3.6,0,6.81.78,9.63,2.32v6.22c-2.55-1.71-5.53-2.57-8.96-2.57-4.76,0-8.56,1.54-11.41,4.61-2.85,3.07-4.27,6.88-4.27,11.41.05,4.54,1.44,8.31,4.15,11.33,2.71,3.02,6.56,4.52,11.54,4.52,3.21,0,6.2-.91,8.96-2.74v6.22Z" />
                    <path class="cls-2"
                        d="M1407.03,712.12c-3.26,1.72-7.25,2.57-11.95,2.57-6.36,0-11.5-1.95-15.4-5.85-3.9-3.9-5.85-9.06-5.85-15.48s1.74-11.98,5.23-15.85,7.97-5.81,13.45-5.81,9.43,1.69,12.53,5.06c3.1,3.38,4.65,8.16,4.65,14.36,0,1.77-.14,3.4-.42,4.9h-28.72c.5,4.15,2.08,7.33,4.73,9.54,2.66,2.21,6.14,3.32,10.46,3.32,4.7,0,8.47-.97,11.29-2.91v6.14ZM1392.5,677.43c-3.15,0-5.84,1.13-8.05,3.4-2.21,2.27-3.51,5.51-3.9,9.71h22.58v-1.66c0-3.49-.94-6.27-2.82-8.34-1.88-2.08-4.48-3.11-7.8-3.11Z" />
                    <path class="cls-2"
                        d="M1444.96,703.07c0,3.6-1.26,6.45-3.78,8.55-2.52,2.1-5.96,3.15-10.33,3.15-5.09,0-9.21-.86-12.37-2.57v-6.39c3.71,2.21,7.69,3.32,11.95,3.32,2.54,0,4.48-.5,5.81-1.49s1.99-2.35,1.99-4.07c0-1.99-.73-3.54-2.2-4.65-1.47-1.11-3.92-2.35-7.34-3.73-3.15-1.22-5.69-2.74-7.59-4.57s-2.86-4.29-2.86-7.39c0-3.49,1.31-6.27,3.94-8.34,2.63-2.08,5.91-3.11,9.83-3.11,4.37,0,7.88.61,10.54,1.83v6.22c-2.55-1.55-6.03-2.32-10.46-2.32-2.21,0-3.97.51-5.27,1.54-1.3,1.02-1.95,2.34-1.95,3.94,0,1,.19,1.87.58,2.61.39.75,1.15,1.48,2.28,2.2,1.13.72,1.96,1.2,2.49,1.45.53.25,1.67.76,3.44,1.54,3.54,1.44,6.31,3.07,8.3,4.9s2.99,4.29,2.99,7.39Z" />
                    <path class="cls-2"
                        d="M1491.35,714.28h-16.93v-55.94h16.6c8.24,0,15.01,2.56,20.29,7.68,5.28,5.12,7.93,11.75,7.93,19.88s-2.45,14.83-7.35,20.25c-4.9,5.42-11.74,8.13-20.54,8.13ZM1490.94,664.31h-9.71v44.07h10.04c6.92,0,12.14-2.14,15.69-6.43,3.54-4.29,5.31-9.64,5.31-16.06,0-6.09-1.98-11.21-5.93-15.36-3.96-4.15-9.09-6.22-15.4-6.22Z" />
                    <path class="cls-2"
                        d="M1559.66,712.12c-3.26,1.72-7.25,2.57-11.95,2.57-6.36,0-11.5-1.95-15.4-5.85-3.9-3.9-5.85-9.06-5.85-15.48s1.74-11.98,5.23-15.85,7.97-5.81,13.45-5.81,9.43,1.69,12.53,5.06c3.1,3.38,4.65,8.16,4.65,14.36,0,1.77-.14,3.4-.42,4.9h-28.72c.5,4.15,2.08,7.33,4.73,9.54,2.66,2.21,6.14,3.32,10.46,3.32,4.7,0,8.47-.97,11.29-2.91v6.14ZM1545.14,677.43c-3.15,0-5.84,1.13-8.05,3.4-2.21,2.27-3.51,5.51-3.9,9.71h22.58v-1.66c0-3.49-.94-6.27-2.82-8.34-1.88-2.08-4.48-3.11-7.8-3.11Z" />
                    <path class="cls-2"
                        d="M1578.75,730.63h-6.47v-58.43h6.47v6.39c2.93-4.7,7.28-7.05,13.03-7.05s9.97,2.03,13.16,6.1c3.18,4.07,4.77,9.14,4.77,15.23,0,6.47-1.67,11.77-5.02,15.89-3.35,4.12-7.71,6.18-13.07,6.18s-9.82-2.35-12.87-7.05v22.74ZM1578.75,693.28c0,5.37,1.25,9.32,3.73,11.87,2.49,2.55,5.26,3.82,8.3,3.82,3.54,0,6.45-1.4,8.71-4.19,2.27-2.79,3.4-6.76,3.4-11.91,0-4.59-1.11-8.3-3.32-11.12-2.21-2.82-5.01-4.23-8.38-4.23s-6.3,1.23-8.76,3.69c-2.46,2.46-3.69,6.49-3.69,12.08Z" />
                    <path class="cls-2"
                        d="M1642.08,709.3c-2.16,3.6-6.09,5.4-11.79,5.4-3.93,0-7.1-1.16-9.5-3.49-2.41-2.32-3.61-5.26-3.61-8.8,0-4.04,1.54-7.18,4.61-9.42,3.07-2.24,7.26-3.36,12.57-3.36h7.64v-2.16c0-3.32-.75-5.82-2.24-7.51-1.49-1.69-4.01-2.53-7.55-2.53-4.48,0-8.47,1.19-11.95,3.57v-6.56c3.15-1.94,7.3-2.91,12.45-2.91,10.57,0,15.85,5.37,15.85,16.1v26.64h-6.47v-4.98ZM1632.2,709.21c2.99,0,5.37-.84,7.14-2.53,1.77-1.69,2.66-3.83,2.66-6.43v-5.39h-7.3c-3.54,0-6.2.69-7.97,2.08-1.77,1.38-2.66,3.13-2.66,5.23s.69,3.81,2.08,5.1c1.38,1.3,3.4,1.95,6.06,1.95Z" />
                    <path class="cls-2"
                        d="M1666.65,714.28h-6.56l.08-42.08h6.47v7.39c2.21-5.2,6.03-7.8,11.45-7.8,1,0,1.77.06,2.32.17v6.47c-1.16-.39-2.35-.58-3.57-.58-2.93,0-5.37,1.36-7.3,4.07-1.94,2.71-2.91,5.84-2.91,9.38v22.99Z" />
                    <path class="cls-2"
                        d="M1708.31,713.2c-1.83,1-3.87,1.49-6.14,1.49-8.3,0-12.45-4.23-12.45-12.7v-24.48h-6.72v-5.31h6.72v-10.46h6.56v10.46h11.62v5.31h-11.62v24.65c0,4.48,2.1,6.72,6.31,6.72,2.16,0,4.07-.64,5.73-1.91v6.22Z" />
                    <path class="cls-2"
                        d="M1774.13,714.28h-6.56v-27.22c0-6.36-2.68-9.54-8.05-9.54-2.66,0-5.04,1.2-7.14,3.61-2.1,2.41-3.15,5.8-3.15,10.17v22.99h-6.56v-27.22c0-6.36-2.68-9.54-8.05-9.54-2.66,0-5.04,1.2-7.14,3.61-2.1,2.41-3.15,5.8-3.15,10.17v22.99h-6.47v-42.08h6.47v6.81c2.32-4.92,6.28-7.39,11.87-7.39,6.47,0,10.57,2.74,12.28,8.22,1.22-2.66,2.92-4.69,5.1-6.1,2.19-1.41,4.63-2.12,7.35-2.12,4.37,0,7.66,1.25,9.88,3.74,2.21,2.49,3.32,5.84,3.32,10.04v28.88Z" />
                    <path class="cls-2"
                        d="M1816.46,712.12c-3.26,1.72-7.25,2.57-11.95,2.57-6.36,0-11.5-1.95-15.4-5.85-3.9-3.9-5.85-9.06-5.85-15.48s1.74-11.98,5.23-15.85,7.97-5.81,13.45-5.81,9.43,1.69,12.53,5.06c3.1,3.38,4.65,8.16,4.65,14.36,0,1.77-.14,3.4-.42,4.9h-28.72c.5,4.15,2.08,7.33,4.73,9.54,2.66,2.21,6.14,3.32,10.46,3.32,4.7,0,8.47-.97,11.29-2.91v6.14ZM1801.93,677.43c-3.15,0-5.84,1.13-8.05,3.4-2.21,2.27-3.51,5.51-3.9,9.71h22.58v-1.66c0-3.49-.94-6.27-2.82-8.34-1.88-2.08-4.48-3.11-7.8-3.11Z" />
                    <path class="cls-2"
                        d="M1862.27,714.28h-6.56v-27.22c0-3.1-.79-5.46-2.37-7.1-1.58-1.63-3.64-2.45-6.18-2.45-3.15,0-5.88,1.22-8.18,3.65-2.3,2.44-3.44,5.81-3.44,10.13v22.99h-6.47v-42.08h6.47v7.3c2.49-5.26,6.92-7.88,13.28-7.88,4.09,0,7.36,1.25,9.79,3.74,2.43,2.49,3.65,5.81,3.65,9.96v28.97Z" />
                    <path class="cls-2"
                        d="M1894.98,713.2c-1.83,1-3.87,1.49-6.14,1.49-8.3,0-12.45-4.23-12.45-12.7v-24.48h-6.72v-5.31h6.72v-10.46h6.56v10.46h11.62v5.31h-11.62v24.65c0,4.48,2.1,6.72,6.31,6.72,2.16,0,4.07-.64,5.73-1.91v6.22Z" />
                </g>
            </g>
            <g class="cls-12">
                <g class="cls-12">
                    <path class="cls-9"
                        d="M94.83,376.16c0-16.63,2.91-31.16,8.72-43.58,5.81-12.42,13.78-21.96,23.93-28.62,10.14-6.67,21.53-10,34.18-10,18.68,0,33.61,6.13,44.78,18.37,11.16,12.25,16.75,31.53,16.75,57.85v5.98h-113.99c0,25.18,5.52,43.67,16.58,55.46,11.05,11.79,26.6,17.69,46.66,17.69,17.09,0,32.13-3.02,45.12-9.06v12.82c-10.6,5.92-25.63,8.89-45.12,8.89-24.84,0-43.98-7.46-57.42-22.39-13.44-14.92-20.17-36.06-20.17-63.4ZM161.65,306.09c-14.13,0-26.04,5.38-35.72,16.15-9.69,10.77-15.15,24.64-16.41,41.61h99.63c-.34-18.91-4.5-33.27-12.48-43.07-7.98-9.8-19.65-14.7-35.03-14.7Z" />
                </g>
            </g>
            <g class="cls-12">
                <g class="cls-12">
                    <path class="cls-9"
                        d="M464.36,302.26l2.73,22.39h.34c7.52-8.89,15.21-15.52,23.07-19.91,7.86-4.38,17.43-6.58,28.71-6.58,13.56,0,24.55,3.13,32.98,9.4,8.43,6.27,14.13,13.96,17.09,23.07h.68c7.75-11.05,15.92-19.23,24.52-24.52,8.6-5.3,18.65-7.95,30.16-7.95,17.54,0,30.9,5.04,40.08,15.12,9.17,10.08,13.76,24.24,13.76,42.47v106.13h-13.67v-102.88c0-32.24-13.73-48.36-41.19-48.36-11.05,0-20.54,2.99-28.45,8.97-7.92,5.98-15.35,14.56-22.3,25.72v116.55h-13.67v-107.84c0-13.44-3.62-24.04-10.85-31.79-7.24-7.75-17.52-11.62-30.85-11.62-10.25,0-19.31,2.45-27.17,7.35-7.86,4.9-15.61,12.02-23.24,21.36v122.53h-13.67v-159.62h10.94Z" />
                </g>
            </g>
            <g class="cls-12">
                <g class="cls-12">
                    <path class="cls-9"
                        d="M908.26,302.26l2.39,25.98h.34c6.61-9.46,14.5-16.83,23.67-22.13,9.17-5.3,19.11-7.95,29.82-7.95,16.86,0,29.59,4.96,38.2,14.87,8.6,9.91,12.9,24.44,12.9,43.58v105.27h-13.5v-103.56c0-15.95-3.08-27.88-9.23-35.8-6.15-7.92-16.18-11.88-30.08-11.88-9.69,0-19.08,2.99-28.2,8.97-9.12,5.98-16.98,14.1-23.58,24.35v117.92h-13.67v-159.62h10.94Z" />
                </g>
            </g>
            <g class="cls-12">
                <g class="cls-12">
                    <path class="cls-9"
                        d="M1333.96,302.26l2.39,28.37h.34c6.26-9.34,15.18-17.09,26.75-23.24,11.56-6.15,23.44-9.23,35.63-9.23h4.44v13.5h-4.44c-12.53,0-24.58,3.42-36.14,10.25-11.57,6.84-20.31,15.78-26.23,26.83v113.13h-13.67v-159.62h10.94Z" />
                </g>
            </g>
            <g class="cls-12">
                <g class="cls-12">
                    <path class="cls-9"
                        d="M1656.13,383.09c0-25.98,6.26-46.63,18.8-61.95,12.53-15.32,29.34-22.99,50.42-22.99,10.94,0,20.42,1.82,28.46,5.47,8.03,3.65,15.01,9.4,20.93,17.26h.68l-.68-19.31v-87.16h13.67v216.02c0,13.22.34,23.7,1.03,31.45h-10.25l-3.76-18.63h-.68c-4.56,6.15-11.65,11.51-21.28,16.06-9.63,4.56-19.11,6.84-28.46,6.84-12.53,0-23.98-2.93-34.35-8.8-10.37-5.87-18.71-15.01-25.04-27.43-6.32-12.42-9.49-28.03-9.49-46.83ZM1774.73,425.82v-90.58c-14.01-16.41-30.36-24.61-49.05-24.61-17.09,0-30.56,6.55-40.42,19.65-9.86,13.1-14.78,30.93-14.78,53.49s4.87,38.82,14.61,51.18c9.74,12.36,23.16,18.54,40.25,18.54,10.37,0,20.05-2.59,29.05-7.78,9-5.18,15.78-11.82,20.34-19.91Z" />
                </g>
            </g>
        </g>
    </g>
</svg>