<?xml version="1.0" encoding="UTF-8"?>
<!-- Generator: visioncortex VTracer 0.6.4 -->
<svg version="1.1" xmlns="http://www.w3.org/2000/svg" width="100" height="85">
<path d="M0 0 C2.394531 1.6875 2.394531 1.6875 4.8125 4 C5.682617 4.822422 6.552734 5.644844 7.449219 6.492188 C10.348435 9.342565 13.226143 12.211761 16.078125 15.109375 C17.949736 16.950554 19.880918 18.668066 21.875 20.375 C26.847211 24.650906 31.399643 29.332101 36 34 C36.928125 34.867539 37.85625 35.735078 38.8125 36.628906 C39.895312 37.802598 39.895312 37.802598 41 39 C40.8125 41.8125 40.8125 41.8125 40 44 C36.535 44.495 36.535 44.495 33 45 C33.010474 46.140659 33.020947 47.281318 33.031738 48.456543 C33.067877 52.679493 33.090878 56.902429 33.109863 61.125488 C33.119935 62.954939 33.133593 64.784373 33.150879 66.61377 C33.175077 69.239949 33.186471 71.865917 33.195312 74.492188 C33.205635 75.313069 33.215958 76.13395 33.226593 76.979706 C33.226992 78.987891 33.122495 80.995554 33 83 C31 85 31 85 28.569824 85.227051 C27.574829 85.216577 26.579834 85.206104 25.554688 85.195312 C24.585151 85.190317 23.615615 85.185322 22.616699 85.180176 C20.764558 85.152864 20.764558 85.152864 18.875 85.125 C12.996875 85.063125 12.996875 85.063125 7 85 C6.505 72.13 6.505 72.13 6 59 C0.06 59 -5.88 59 -12 59 C-12.33 67.58 -12.66 76.16 -13 85 C-18.878125 85.061875 -18.878125 85.061875 -24.875 85.125 C-26.109761 85.143208 -27.344521 85.161416 -28.616699 85.180176 C-30.071003 85.187668 -30.071003 85.187668 -31.554688 85.195312 C-32.549683 85.205786 -33.544678 85.21626 -34.569824 85.227051 C-37 85 -37 85 -39 83 C-39.175323 80.131114 -39.231376 77.360074 -39.195312 74.492188 C-39.191068 73.231258 -39.191068 73.231258 -39.186737 71.944855 C-39.175524 69.25476 -39.150418 66.564995 -39.125 63.875 C-39.114972 62.05339 -39.105846 60.231775 -39.097656 58.410156 C-39.075581 53.939976 -39.041044 49.470044 -39 45 C-39.94875 45.04125 -40.8975 45.0825 -41.875 45.125 C-45 45 -45 45 -47 43 C-47.546875 40.789062 -47.546875 40.789062 -47 38 C-45.016307 35.497373 -42.651809 33.468988 -40.25 31.375 C-39.566958 30.759634 -38.883916 30.144268 -38.180176 29.510254 C-36.78612 28.255311 -35.387188 27.005764 -33.983398 25.761719 C-31.248983 23.332922 -28.563531 20.854503 -25.875 18.375 C-24.92625 17.50875 -23.9775 16.6425 -23 15.75 C-20.801865 13.740445 -18.617118 11.717123 -16.4375 9.6875 C-15.843403 9.135298 -15.249307 8.583096 -14.637207 8.01416 C-13.485405 6.942783 -12.335265 5.869614 -11.187012 4.794434 C-7.363813 1.242367 -5.331073 -0.622607 0 0 Z " fill="#DFD6CA" transform="translate(53,0)"/>
</svg>
