<?xml version="1.0" encoding="UTF-8" ?>
<svg width="100" height="85" viewBox="0 0 25 25" version="1.1" xmlns="http://www.w3.org/2000/svg"
    xmlns:xlink="http://www.w3.org/1999/xlink" xml:space="preserve" xmlns:serif="http://www.serif.com/"
    style="fill-rule:evenodd;clip-rule:evenodd;stroke-linejoin:round;stroke-miterlimit:2;">
    <g id="HomeButton">
        <path
            d="M3.22,11.834l-1.338,0c-0.299,0 -0.566,-0.184 -0.673,-0.462c-0.106,-0.279 -0.03,-0.594 0.192,-0.794c2.471,-2.215 7.589,-6.804 10.197,-9.142c0.912,-0.817 2.292,-0.817 3.204,0c2.608,2.338 7.726,6.927 10.197,9.142c0.222,0.2 0.298,0.515 0.192,0.794c-0.107,0.278 -0.374,0.462 -0.673,0.462c-0.705,0 -1.338,0 -1.338,0l-0,13.846c-0,0.191 -0.076,0.374 -0.211,0.509c-0.135,0.135 -0.318,0.211 -0.509,0.211c-1.663,0 -5.627,0 -5.627,0l-0,-10.199l-7.266,0l0,10.199l-5.627,0c-0.191,0 -0.374,-0.076 -0.509,-0.211c-0.135,-0.135 -0.211,-0.318 -0.211,-0.509c0,-2.936 0,-13.846 0,-13.846Z"
            style="fill:currentColor;" />
    </g>
</svg>