<?xml version="1.0" encoding="UTF-8" standalone="no"?>
<!DOCTYPE svg PUBLIC "-//W3C//DTD SVG 1.1//EN" "http://www.w3.org/Graphics/SVG/1.1/DTD/svg11.dtd">
<svg width="100%" height="100%" viewBox="0 0 396 443" version="1.1" xmlns="http://www.w3.org/2000/svg" xmlns:xlink="http://www.w3.org/1999/xlink" xml:space="preserve" xmlns:serif="http://www.serif.com/" style="fill-rule:evenodd;clip-rule:evenodd;stroke-linecap:round;stroke-linejoin:round;stroke-miterlimit:1.5;">
    <g transform="matrix(1,0,0,1,-810,-264)">
        <g id="Logo">
            <g id="Backround" transform="matrix(1,0,0,1,-260,-240)">
                <g transform="matrix(1,0,0,1,260,240)">
                    <path d="M833.043,332.303L834.937,275.268L1189,278L1190.6,376.078C1173.91,376.904 1149.86,373.596 1120,370C1059.91,362.765 1080,346.449 1060,350C1046.5,352.397 1015.61,351.905 1000,350C977.555,347.261 974.462,359.711 960,360C938.484,360.43 923.358,350.296 918,343C898.482,316.421 889.193,313.541 884.968,313.521C873.702,313.467 868.699,319.811 861,324C855.213,327.148 844.006,330.802 833.043,332.303Z" style="fill:rgb(15,134,166);stroke:rgb(97,86,10);stroke-width:3px;"/>
                </g>
                <g transform="matrix(1,0,0,1,260,240)">
                    <path d="M829.83,429.062L833.043,332.303C844.006,330.802 855.213,327.148 861,324C868.699,319.811 873.702,313.467 884.968,313.521C889.193,313.541 898.482,316.421 918,343C923.358,350.296 938.484,360.43 960,360C974.462,359.711 977.555,347.261 1000,350C1015.61,351.905 1046.5,352.397 1060,350C1080,346.449 1059.91,362.765 1120,370C1149.86,373.596 1173.91,376.904 1190.6,376.078L1191.32,420.87C1160.66,423.393 1131,420.232 1105.05,420C1082.11,419.795 1043.47,429.003 1016.59,430C994.825,430.807 957.433,429.604 946.724,429.773C919.588,430.199 904.462,433.958 890,433.776C869.118,433.512 846.203,429.102 829.83,429.062Z" style="fill:rgb(220,138,39);stroke:rgb(97,86,10);stroke-width:3px;"/>
                </g>
                <g transform="matrix(1,0,0,1,260,240)">
                    <path d="M826.175,539.137L829.83,429.062C846.203,429.102 869.118,433.512 890,433.776C904.462,433.958 919.588,430.199 946.724,429.773C957.433,429.604 994.825,430.807 1016.59,430C1043.47,429.003 1082.11,419.795 1105.05,420C1131,420.232 1160.66,423.393 1191.32,420.87L1192.91,518.464C1153.59,508.858 1135.7,485.815 1130,480C1122.66,472.519 1081.53,427.214 1065,429.886C1031.19,435.353 992.187,518.693 960,530C948.548,534.023 935.761,523.102 925.21,523.637C906.802,524.569 907.953,512.603 884.634,515.845C871.323,517.695 852.95,534.361 826.175,539.137Z" style="fill:rgb(242,220,61);stroke:rgb(97,86,10);stroke-width:3px;"/>
                </g>
                <g transform="matrix(1,0,0,1,260,240)">
                    <path d="M823.587,617.102L826.175,539.137C852.95,534.361 871.323,517.695 884.634,515.845C907.953,512.603 906.802,524.569 925.21,523.637C935.761,523.102 948.548,534.023 960,530C992.187,518.693 1031.19,435.353 1065,429.886C1081.53,427.214 1122.66,472.519 1130,480C1135.7,485.815 1153.59,508.858 1192.91,518.464L1194.74,630.844C1184.55,629.597 1114.29,621.295 1040,620C1013.95,619.546 981.174,608.883 960,609.802C944.746,610.464 927.703,619.404 908.553,620C891.799,620.522 871.921,605.286 864.524,604.983C855.848,604.627 846.26,615.476 830,614.856C827.448,614.758 825.331,615.57 823.587,617.102Z" style="fill:rgb(111,159,65);stroke:rgb(97,86,10);stroke-width:3px;"/>
                </g>
                <g id="StateOutline" transform="matrix(1,0,0,1,260,240)">
                    <path d="M1194.74,630.844L1195,647L973,649L973,658L979,665L874,663L873.5,696L821,695L823.587,617.102C825.331,615.57 827.448,614.758 830,614.856C846.26,615.476 855.848,604.627 864.524,604.983C871.921,605.286 891.799,620.522 908.553,620C927.703,619.404 944.746,610.464 960,609.802C981.174,608.883 1013.95,619.546 1040,620C1114.29,621.295 1184.55,629.597 1194.74,630.844Z" style="fill:rgb(24,71,134);stroke:rgb(97,86,10);stroke-width:3px;"/>
                </g>
            </g>
            <g id="tree">
                <g transform="matrix(0.998918,0.0465069,-0.0465069,0.998918,30.0656,-46.2514)">
                    <path d="M992.418,590.736C997.978,606.926 997.488,627.255 999,646C999.59,653.317 1023.77,651.673 1023.01,644.372C1021.71,631.957 1022.2,608.69 1021.92,599.374C1021.5,585.878 990.8,586.024 992.418,590.736Z" style="fill:rgb(97,86,10);"/>
                </g>
                <path d="M1006.77,354.27C1002.62,354.636 991.641,377.942 983.057,400C977.929,413.181 975.95,436.161 973.057,444.066C965.324,465.199 973.617,451.706 962.559,482.802C959.538,491.294 954.655,504.656 955.475,517.189C956.413,531.526 950.447,534.034 945.594,550C942.698,559.527 937.29,584.027 940,585C954.924,590.36 978.813,591.179 993.89,590.5C1005.97,589.956 1014.28,594.85 1022,597C1035.07,600.641 1070.14,606.028 1068.94,585.225C1068.36,575.055 1059.33,561.629 1058.94,535.533C1058.7,519.245 1052.11,505.33 1048.94,482.207C1044.74,451.472 1042.5,466.524 1038.94,445.225C1035.99,427.495 1031.95,438.357 1027,415.225C1023.82,400.369 1021.21,392.625 1013.06,386.308C1007.28,381.827 1019.16,353.179 1006.77,354.27Z" style="fill:rgb(0,126,85);"/>
                <g id="tree1" serif:id="tree">
                    <path d="M1022.55,597.15C1022.86,598.033 1023.02,598.981 1023,600C1022.85,609.32 1021.28,632.539 1022,645C1022.42,652.329 998.19,652.847 997.941,645.51C997.309,626.903 998.709,606.834 994.078,590.492C994.016,590.494 993.953,590.497 993.89,590.5C978.813,591.179 954.924,590.36 940,585C937.29,584.027 942.698,559.527 945.594,550C950.447,534.034 956.413,531.526 955.475,517.189C954.655,504.656 959.538,491.294 962.559,482.802C973.617,451.706 965.324,465.199 973.057,444.066C975.95,436.161 977.929,413.181 983.057,400C991.641,377.942 1002.62,354.636 1006.77,354.27C1019.16,353.179 1007.28,381.827 1013.06,386.308C1021.21,392.625 1023.82,400.369 1027,415.225C1031.95,438.357 1035.99,427.495 1038.94,445.225C1042.5,466.524 1044.74,451.472 1048.94,482.207C1052.11,505.33 1058.7,519.245 1058.94,535.533C1059.33,561.629 1068.36,575.055 1068.94,585.225C1070.13,605.743 1036.03,600.783 1022.55,597.15Z" style="fill:none;stroke:rgb(10,86,43);stroke-width:4.65px;"/>
                </g>
            </g>
            <path id="StateOutline1" serif:id="StateOutline" d="M873.5,696L821,695L834.937,275.268L1189,278L1195,647L973,649L973,658L979,665L874,663L873.5,696Z" style="fill:none;stroke:rgb(209,119,9);stroke-width:21.8px;"/>
        </g>
    </g>
</svg>
