<?xml version="1.0" encoding="UTF-8" standalone="no"?>
<!DOCTYPE svg PUBLIC "-//W3C//DTD SVG 1.1//EN" "http://www.w3.org/Graphics/SVG/1.1/DTD/svg11.dtd"><svg width="100%"
    height="100%" viewBox="0 0 20 32" version="1.1" xmlns="http://www.w3.org/2000/svg"
    xmlns:xlink="http://www.w3.org/1999/xlink" xml:space="preserve" xmlns:serif="http://www.serif.com/"
    style="fill-rule:evenodd;clip-rule:evenodd;stroke-linejoin:round;stroke-miterlimit:2;">
    <g id="mapPin">
        <path
            d="M15.733,0.094c0.761,0.001 1.466,0.402 1.855,1.057c0.389,0.654 0.405,1.465 0.042,2.134c-4.425,7.96 -6.385,13.941 -7.298,22.124c-0.03,0.24 -0.233,0.42 -0.474,0.42c-0.242,0 -0.445,-0.18 -0.475,-0.42c-0.92,-8.176 -2.9,-14.158 -7.333,-22.133c-0.363,-0.667 -0.347,-1.477 0.041,-2.13c0.389,-0.654 1.093,-1.054 1.853,-1.053c3.399,-0.004 8.392,-0.001 11.789,0.001Z"
            style="fill:#dd8a24;" />
        <path
            d="M10.57,9.235c-0.182,0.213 -0.449,0.336 -0.729,0.336c-0.281,0 -0.548,-0.122 -0.73,-0.336c-0.987,-1.155 -2.785,-3.259 -4.197,-4.91c-0.365,-0.427 -0.448,-1.028 -0.213,-1.538c0.235,-0.511 0.746,-0.838 1.308,-0.838c2.286,0 5.375,-0 7.662,-0c0.562,-0.001 1.072,0.326 1.308,0.837c0.235,0.51 0.152,1.111 -0.213,1.538c-1.411,1.651 -3.209,3.756 -4.196,4.911Z"
            style="fill:#f2dd3d;" />
    </g>
</svg>